<?xml version="1.0" standalone="no"?>
<!DOCTYPE svg PUBLIC "-//W3C//DTD SVG 20010904//EN"
 "http://www.w3.org/TR/2001/REC-SVG-20010904/DTD/svg10.dtd">
<svg version="1.0" xmlns="http://www.w3.org/2000/svg"
 width="435.000000pt" height="123.000000pt" viewBox="0 0 435.000000 123.000000"
 preserveAspectRatio="xMidYMid meet">

<g transform="translate(0.000000,123.000000) scale(0.100000,-0.100000)"
fill="#000000" stroke="none">
<path d="M510 1140 c0 -11 -7 -20 -15 -20 -8 0 -15 -7 -15 -15 0 -8 -7 -15
-15 -15 -8 0 -15 -7 -15 -15 0 -8 -7 -15 -15 -15 -10 0 -15 -10 -15 -30 0 -20
-5 -30 -15 -30 -8 0 -15 -7 -15 -15 0 -8 -7 -15 -15 -15 -8 0 -15 -9 -15 -20
0 -11 -7 -20 -15 -20 -8 0 -15 -7 -15 -15 0 -8 -9 -15 -20 -15 -11 0 -20 -7
-20 -15 0 -8 -7 -15 -15 -15 -8 0 -15 -7 -15 -15 0 -8 -7 -15 -15 -15 -8 0
-15 -7 -15 -15 0 -8 -7 -15 -15 -15 -8 0 -15 -7 -15 -15 0 -8 -7 -15 -15 -15
-10 0 -15 -11 -15 -35 0 -24 -5 -35 -15 -35 -8 0 -15 -7 -15 -15 0 -8 -7 -15
-15 -15 -8 0 -15 -7 -15 -15 0 -8 -9 -15 -20 -15 -11 0 -20 -7 -20 -15 0 -8
-7 -15 -15 -15 -13 0 -15 -31 -15 -220 0 -189 2 -220 15 -220 8 0 15 -7 15
-15 0 -8 9 -15 20 -15 11 0 20 7 20 15 0 8 7 15 15 15 13 0 15 29 15 205 0
176 2 205 15 205 8 0 15 7 15 15 0 8 7 15 15 15 10 0 15 10 15 30 0 20 5 30
15 30 8 0 15 7 15 15 0 8 7 15 15 15 8 0 15 9 15 20 0 11 7 20 15 20 8 0 15 7
15 15 0 8 9 15 20 15 11 0 20 7 20 15 0 8 7 15 15 15 8 0 15 7 15 15 0 8 7 15
15 15 8 0 15 7 15 15 0 8 7 15 15 15 8 0 15 7 15 15 0 8 7 15 15 15 10 0 15
11 15 35 0 24 5 35 15 35 8 0 15 7 15 15 0 8 7 15 15 15 8 0 15 7 15 15 0 10
11 15 35 15 24 0 35 -5 35 -15 0 -8 7 -15 15 -15 10 0 15 -11 15 -35 0 -24 5
-35 15 -35 10 0 15 -10 15 -30 0 -20 -5 -30 -15 -30 -8 0 -15 -7 -15 -15 0 -8
-7 -15 -15 -15 -8 0 -15 -7 -15 -15 0 -8 -7 -15 -15 -15 -8 0 -15 -7 -15 -15
0 -8 -9 -15 -20 -15 -11 0 -20 -7 -20 -15 0 -8 -7 -15 -15 -15 -8 0 -15 -9
-15 -20 0 -11 -7 -20 -15 -20 -8 0 -15 -7 -15 -15 0 -8 -7 -15 -15 -15 -8 0
-15 -7 -15 -15 0 -8 -7 -15 -15 -15 -8 0 -15 -7 -15 -15 0 -8 -7 -15 -15 -15
-8 0 -15 -7 -15 -15 0 -8 -7 -15 -15 -15 -8 0 -15 -7 -15 -15 0 -8 -9 -15 -20
-15 -19 0 -20 -7 -20 -190 0 -183 1 -190 20 -190 11 0 20 -7 20 -15 0 -13 45
-15 345 -15 300 0 345 2 345 15 0 8 7 15 15 15 13 0 15 31 15 220 0 189 -2
220 -15 220 -8 0 -15 7 -15 15 0 8 -7 15 -15 15 -8 0 -15 7 -15 15 0 8 -9 15
-20 15 -11 0 -20 7 -20 15 0 8 -7 15 -15 15 -8 0 -15 9 -15 20 0 11 -7 20 -15
20 -8 0 -15 7 -15 15 0 8 -7 15 -15 15 -10 0 -15 10 -15 30 0 20 -5 30 -15 30
-8 0 -15 7 -15 15 0 8 -7 15 -15 15 -8 0 -15 7 -15 15 0 8 -7 15 -15 15 -8 0
-15 7 -15 15 0 8 -9 15 -20 15 -13 0 -20 7 -20 20 0 11 -7 20 -15 20 -8 0 -15
7 -15 15 0 8 -7 15 -15 15 -8 0 -15 7 -15 15 0 8 -7 15 -15 15 -10 0 -15 10
-15 30 0 20 -5 30 -15 30 -8 0 -15 7 -15 15 0 8 -7 15 -15 15 -8 0 -15 9 -15
20 0 16 -7 20 -35 20 -28 0 -35 -4 -35 -20z m220 -315 c0 -8 9 -15 20 -15 11
0 20 -7 20 -15 0 -8 7 -15 15 -15 8 0 15 -7 15 -15 0 -8 7 -15 15 -15 10 0 15
-11 15 -35 0 -24 5 -35 15 -35 8 0 15 -7 15 -15 0 -8 7 -15 15 -15 8 0 15 -7
15 -15 0 -8 7 -15 15 -15 8 0 15 -7 15 -15 0 -8 7 -15 15 -15 13 0 15 -26 15
-175 l0 -175 -280 0 -280 0 0 145 c0 122 2 145 15 145 8 0 15 7 15 15 0 8 7
15 15 15 8 0 15 7 15 15 0 8 7 15 15 15 8 0 15 7 15 15 0 8 7 15 15 15 8 0 15
7 15 15 0 8 9 15 20 15 11 0 20 7 20 15 0 8 7 15 15 15 8 0 15 7 15 15 0 8 7
15 15 15 8 0 15 9 15 20 0 11 7 20 15 20 8 0 15 7 15 15 0 8 7 15 15 15 8 0
15 7 15 15 0 8 7 15 15 15 8 0 15 7 15 15 0 8 7 15 15 15 8 0 15 -7 15 -15z" />
<path d="M1770 935 l0 -155 -30 0 c-20 0 -30 5 -30 15 0 10 -10 15 -30 15 -20
0 -30 5 -30 15 0 12 -16 15 -80 15 -64 0 -80 -3 -80 -15 0 -11 -12 -15 -50
-15 -38 0 -50 -4 -50 -15 0 -10 -10 -15 -30 -15 -20 0 -30 -5 -30 -15 0 -8 -7
-15 -15 -15 -10 0 -15 -11 -15 -35 0 -24 -5 -35 -15 -35 -10 0 -15 -10 -15
-30 0 -20 -5 -30 -15 -30 -13 0 -15 -22 -15 -140 0 -118 2 -140 15 -140 10 0
15 -11 15 -35 0 -24 5 -35 15 -35 8 0 15 -7 15 -15 0 -8 7 -15 15 -15 8 0 15
-7 15 -15 0 -8 7 -15 15 -15 8 0 15 -7 15 -15 0 -11 12 -15 50 -15 38 0 50 -4
50 -15 0 -12 19 -15 110 -15 91 0 110 3 110 15 0 10 10 15 30 15 20 0 30 5 30
15 0 8 7 15 15 15 10 0 15 -10 15 -30 l0 -30 95 0 95 0 0 470 0 470 -95 0 -95
0 0 -155z m-120 -270 c0 -10 10 -15 30 -15 20 0 30 -5 30 -15 0 -8 7 -15 15
-15 10 0 15 -10 15 -30 0 -20 5 -30 15 -30 12 0 15 -14 15 -65 0 -51 -3 -65
-15 -65 -10 0 -15 -10 -15 -30 0 -20 -5 -30 -15 -30 -8 0 -15 -7 -15 -15 0 -8
-7 -15 -15 -15 -8 0 -15 -7 -15 -15 0 -12 -16 -15 -80 -15 -64 0 -80 3 -80 15
0 10 -10 15 -30 15 -27 0 -30 3 -30 30 0 20 -5 30 -15 30 -12 0 -15 17 -15 95
0 78 3 95 15 95 8 0 15 7 15 15 0 8 7 15 15 15 8 0 15 7 15 15 0 10 10 15 30
15 20 0 30 5 30 15 0 11 12 15 50 15 38 0 50 -4 50 -15z"/>
<path d="M2310 825 c0 -11 -12 -15 -50 -15 -38 0 -50 -4 -50 -15 0 -10 -10
-15 -30 -15 -20 0 -30 -5 -30 -15 0 -8 -7 -15 -15 -15 -10 0 -15 -11 -15 -35
0 -24 -5 -35 -15 -35 -12 0 -15 -13 -15 -60 0 -47 3 -60 15 -60 10 0 15 -11
15 -35 0 -24 5 -35 15 -35 8 0 15 -7 15 -15 0 -10 10 -15 30 -15 20 0 30 -5
30 -15 0 -12 16 -15 80 -15 64 0 80 -3 80 -15 0 -11 12 -15 45 -15 33 0 45 -4
45 -15 0 -8 7 -15 15 -15 10 0 15 -10 15 -30 0 -29 -2 -30 -45 -30 -38 0 -45
-3 -45 -20 0 -16 -7 -20 -30 -20 -23 0 -30 4 -30 20 0 18 -7 20 -65 20 -51 0
-65 3 -65 15 0 11 -12 15 -45 15 -45 0 -45 0 -45 -35 0 -24 -5 -35 -15 -35
-10 0 -15 -10 -15 -30 0 -20 5 -30 15 -30 8 0 15 -7 15 -15 0 -11 12 -15 45
-15 33 0 45 -4 45 -15 0 -13 22 -15 140 -15 118 0 140 2 140 15 0 11 12 15 50
15 38 0 50 4 50 15 0 8 7 15 15 15 8 0 15 7 15 15 0 8 7 15 15 15 10 0 15 11
15 35 0 24 5 35 15 35 12 0 15 13 15 60 0 47 -3 60 -15 60 -8 0 -15 7 -15 15
0 8 -7 15 -15 15 -8 0 -15 7 -15 15 0 8 -7 15 -15 15 -8 0 -15 9 -15 20 0 17
-7 20 -50 20 -38 0 -50 4 -50 15 0 12 -15 15 -75 15 -60 0 -75 3 -75 15 0 10
-11 15 -35 15 -32 0 -35 2 -35 30 0 23 4 30 20 30 11 0 20 7 20 15 0 12 19 15
110 15 91 0 110 -3 110 -15 0 -10 10 -15 30 -15 20 0 30 5 30 15 0 8 7 15 15
15 10 0 15 11 15 35 0 24 5 35 15 35 8 0 15 7 15 15 0 8 -7 15 -15 15 -8 0
-15 7 -15 15 0 12 -14 15 -65 15 -51 0 -65 3 -65 15 0 12 -17 15 -90 15 -73 0
-90 -3 -90 -15z"/>
<path d="M3030 825 c0 -11 -12 -15 -50 -15 -38 0 -50 -4 -50 -15 0 -10 -10
-15 -30 -15 -20 0 -30 -5 -30 -15 0 -8 -7 -15 -15 -15 -8 0 -15 -9 -15 -20 0
-11 -7 -20 -15 -20 -10 0 -15 -10 -15 -30 0 -20 -5 -30 -15 -30 -11 0 -15 -12
-15 -45 0 -33 -4 -45 -15 -45 -12 0 -15 -16 -15 -80 0 -64 3 -80 15 -80 10 0
15 -10 15 -30 0 -20 5 -30 15 -30 10 0 15 -11 15 -35 0 -24 5 -35 15 -35 8 0
15 -7 15 -15 0 -8 7 -15 15 -15 8 0 15 -7 15 -15 0 -10 10 -15 30 -15 20 0 30
-5 30 -15 0 -10 11 -15 35 -15 24 0 35 -5 35 -15 0 -13 21 -15 125 -15 104 0
125 2 125 15 0 11 12 15 45 15 33 0 45 4 45 15 0 8 7 15 15 15 8 0 15 7 15 15
0 8 9 15 20 15 11 0 20 7 20 15 0 8 -9 15 -20 15 -13 0 -20 7 -20 20 0 11 -7
20 -15 20 -8 0 -15 7 -15 15 0 11 -12 15 -45 15 -33 0 -45 -4 -45 -15 0 -12
-19 -15 -110 -15 -91 0 -110 3 -110 15 0 8 -7 15 -15 15 -8 0 -15 7 -15 15 0
8 -7 15 -15 15 -10 0 -15 10 -15 30 l0 30 235 0 c202 0 235 2 235 15 0 8 7 15
15 15 10 0 15 11 15 35 0 24 -5 35 -15 35 -12 0 -15 13 -15 60 0 47 -3 60 -15
60 -10 0 -15 10 -15 30 0 23 -4 30 -20 30 -13 0 -20 7 -20 20 0 11 -7 20 -15
20 -8 0 -15 7 -15 15 0 10 -10 15 -30 15 -20 0 -30 5 -30 15 0 11 -12 15 -45
15 -33 0 -45 4 -45 15 0 12 -16 15 -80 15 -64 0 -80 -3 -80 -15z m160 -160 c0
-10 10 -15 30 -15 27 0 30 -3 30 -30 0 -20 5 -30 15 -30 8 0 15 -7 15 -15 0
-13 -26 -15 -175 -15 -149 0 -175 2 -175 15 0 8 9 15 20 15 16 0 20 7 20 30 0
27 3 30 30 30 20 0 30 5 30 15 0 12 16 15 80 15 64 0 80 -3 80 -15z"/>
<path d="M3590 560 c0 -243 1 -250 20 -250 16 0 20 -7 20 -35 0 -24 5 -35 15
-35 8 0 15 -7 15 -15 0 -8 7 -15 15 -15 8 0 15 -7 15 -15 0 -10 10 -15 30 -15
20 0 30 -5 30 -15 0 -12 19 -15 110 -15 91 0 110 3 110 15 0 10 10 15 30 15
20 0 30 5 30 15 0 8 9 15 20 15 11 0 20 -7 20 -15 0 -8 7 -15 15 -15 8 0 15
-7 15 -15 0 -12 15 -15 75 -15 l75 0 0 330 0 330 -90 0 -90 0 0 -205 c0 -198
-1 -205 -20 -205 -16 0 -20 -7 -20 -30 0 -27 -3 -30 -30 -30 -20 0 -30 -5 -30
-15 0 -12 -13 -15 -60 -15 -47 0 -60 3 -60 15 0 8 -9 15 -20 15 -11 0 -20 7
-20 15 0 8 -7 15 -15 15 -13 0 -15 31 -15 220 l0 220 -95 0 -95 0 0 -250z"/>
</g>
</svg>
