<svg xmlns="http://www.w3.org/2000/svg" width="150.162" height="62.328" viewBox="0 0 150.162 62.328"><defs><style>.a{fill:#ffaa0d;}.b{fill:#6335cc;}.c{fill:#f7f5f6;fill-rule:evenodd;}.d{fill:#272727;}</style></defs><g transform="translate(-8721.52 -8018.461)"><path class="a" d="M6.951,0H37.12a6.951,6.951,0,0,1,6.952,6.951V37.12a6.952,6.952,0,0,1-6.952,6.952H6.951A6.951,6.951,0,0,1,0,37.12V6.951A6.951,6.951,0,0,1,6.951,0Z" transform="translate(8730.646 8027.589)"/><path class="b" d="M7,0H37.071a7,7,0,0,1,7,7v30.07a7,7,0,0,1-7,7H7a7,7,0,0,1-7-7V7A7,7,0,0,1,7,0Z" transform="translate(8721.52 8049.625) rotate(-45)"/><path class="c" d="M10021.063,9334.27l16.206-16.207a1.768,1.768,0,0,1,2.493,0h0a1.766,1.766,0,0,1,0,2.493l-16.206,16.205a1.77,1.77,0,0,1-2.493,0h0A1.768,1.768,0,0,1,10021.063,9334.27Z" transform="translate(-1282.716 -1282.773)"/><path class="c" d="M10418.169,9731.278l16.208-16.205a1.766,1.766,0,0,1,2.491,0h0a1.766,1.766,0,0,1,0,2.493l-16.2,16.205a1.768,1.768,0,0,1-2.493,0h0A1.774,1.774,0,0,1,10418.169,9731.278Z" transform="translate(-1674.837 -1674.797)"/><path class="c" d="M10815.172,10516.511l11.267-11.269a1.771,1.771,0,0,1,2.494,0h0a1.765,1.765,0,0,1,0,2.492l-11.268,11.269a1.767,1.767,0,0,1-2.493,0h0A1.764,1.764,0,0,1,10815.172,10516.511Z" transform="translate(-2066.851 -2455.044)"/><path class="d" d="M14888.357,9485.061c-.266,0-.4.132-.4.425v12.491l-8.238-12.041c-.532-.717-.532-.77-1.647-.875h-2.633c-.266,0-.4.132-.4.425v19.723c0,.292.133.427.4.427h3.375c.267,0,.4-.135.4-.427v-13.024l8.722,12.784a1.529,1.529,0,0,0,1.326.667h2.471c.267,0,.4-.135.4-.427v-19.723c0-.293-.133-.425-.4-.425Z" transform="translate(-6076.242 -1448.181)"/><path class="d" d="M16484.09,9927.439c-2.68,0-4.465.5-5.34,1.513-.879.985-1.328,3.007-1.328,6.063,0,3.03.449,5.049,1.328,6.06s2.66,1.516,5.34,1.516a27.245,27.245,0,0,0,5.08-.371.391.391,0,0,0,.373-.427v-2.205a.353.353,0,0,0-.4-.4h-4.7a3.847,3.847,0,0,1-2.393-.531,3.213,3.213,0,0,1-.611-2.285h8.348c.664,0,.85-.187.85-.719v-.822c-.027-2.952-.449-4.917-1.33-5.9C16488.449,9927.943,16486.721,9927.439,16484.09,9927.439Zm0,3.4c1.943,0,2.555.637,2.582,2.949h-5.262C16481.434,9931.479,16482.072,9930.842,16484.09,9930.842Z" transform="translate(-7658.502 -1885.005)"/><path class="d" d="M17629.072,9609a.409.409,0,0,0-.369.425v2.95h-1.57c-.289,0-.422.133-.422.4v2.127c0,.268.133.4.422.4h1.57v8.585c.105,2.021.613,2.846,1.861,3.191a8,8,0,0,0,2.494.238,11.555,11.555,0,0,0,2.266-.238.457.457,0,0,0,.422-.507v-2.258c0-.267-.158-.4-.453-.4h-1.09c-1.193,0-1.566-.266-1.566-1.355V9615.3h2.443c.291,0,.453-.132.453-.4v-2.127c0-.266-.162-.4-.453-.4h-2.443v-3.8c0-.346-.137-.479-.424-.4Z" transform="translate(-8793.357 -1569.729)"/><path class="d" d="M18490.568,9438.49c-1.486,0-2.338.771-2.338,2.127a2.054,2.054,0,0,0,2.338,2.152,2.144,2.144,0,1,0,0-4.279Zm-1.6,6.273a.351.351,0,0,0-.4.4v14.063c0,.293.135.424.4.424h3.141c.262,0,.4-.131.4-.424v-14.063a.351.351,0,0,0-.4-.4Z" transform="translate(-9644.059 -1402.196)"/><path class="d" d="M18905.352,9438.49a2.146,2.146,0,1,0,2.314,2.127C18907.666,9439.262,18906.842,9438.49,18905.352,9438.49Zm-1.594,6.273a.35.35,0,0,0-.4.4v15.367c0,1.061-.162,1.193-1.307,1.193h-.637c-.316,0-.479.135-.479.425v2.26a.583.583,0,0,0,.451.532,9.6,9.6,0,0,0,2.182.214,4.785,4.785,0,0,0,2.816-.667c.611-.424.93-1.327.93-2.685v-16.64a.351.351,0,0,0-.4-.4Z" transform="translate(-10051.584 -1402.196)"/><path class="d" d="M19633.7,9927.439q-4.025,0-5.342,1.513c-.879.985-1.33,3.007-1.33,6.063,0,3.03.451,5.049,1.33,6.06s2.658,1.516,5.342,1.516a27.221,27.221,0,0,0,5.078-.371.392.392,0,0,0,.369-.427v-2.205a.353.353,0,0,0-.4-.4h-4.7a3.862,3.862,0,0,1-2.395-.531,3.232,3.232,0,0,1-.611-2.285h8.35c.664,0,.848-.187.848-.719v-.822c-.025-2.952-.449-4.917-1.328-5.9C19638.053,9927.943,19636.326,9927.439,19633.7,9927.439Zm0,3.4c1.939,0,2.551.637,2.578,2.949h-5.262C19631.035,9931.479,19631.674,9930.842,19633.7,9930.842Z" transform="translate(-10768.55 -1885.005)"/></g></svg>