<svg width="38" height="32" viewBox="0 0 38 32" fill="none" xmlns="http://www.w3.org/2000/svg">
<path d="M33.4 0H4.6C3.59612 0.0596263 2.65644 0.513428 1.98555 1.2626C1.31467 2.01177 0.966915 2.99564 1.018 4L1 28C0.952753 29.0064 1.30424 29.9908 1.97821 30.7396C2.65217 31.4885 3.59424 31.9414 4.6 32H33.4C34.4058 31.9414 35.3478 31.4885 36.0218 30.7396C36.6958 29.9908 37.0473 29.0064 37 28V4C37.0473 2.99364 36.6958 2.00923 36.0218 1.26038C35.3478 0.511533 34.4058 0.05865 33.4 0V0ZM33.4 28H4.6V8L19 18L33.4 8V28ZM19 14L4.6 4H33.4L19 14Z" fill="#F0F0F0"/>
</svg>
