<svg width="34" height="34" viewBox="0 0 34 34" fill="none" xmlns="http://www.w3.org/2000/svg">
<path d="M16.796 0.5C21.1171 0.501582 25.2608 2.21891 28.3162 5.2745C31.3716 8.33009 33.0887 12.4739 33.09 16.795L16.796 0.5ZM7.7427 3.24573C10.4225 1.45536 13.573 0.499838 16.7958 0.5L33.09 16.7951C33.09 20.018 32.1343 23.1684 30.3437 25.8481C28.5532 28.5278 26.0082 30.6164 23.0306 31.8497C20.053 33.083 16.7766 33.4057 13.6157 32.7768C10.4547 32.148 7.55122 30.596 5.27236 28.317C2.9935 26.038 1.44163 23.1344 0.812993 19.9734C0.184357 16.8124 0.50719 13.536 1.74067 10.5585C2.97415 7.581 5.06287 5.03613 7.7427 3.24573ZM8.06481 27.1265L7.72317 27.842H8.34436C10.7626 29.7135 13.7353 30.7306 16.7965 30.7306C19.9163 30.7306 22.9443 29.6742 25.387 27.7335L25.6961 27.488L25.529 27.1303C25.2901 26.6191 24.7803 26.1796 24.1932 25.8133C23.5905 25.4373 22.8379 25.0965 22.0215 24.8092C20.3913 24.2357 18.4414 23.853 16.796 23.853C15.1505 23.853 13.2046 24.2354 11.5764 24.8089C10.7609 25.0961 10.009 25.4369 9.40581 25.8127C8.8177 26.1793 8.30775 26.6178 8.06481 27.1265ZM27.0906 25.2244L27.2406 25.407H27.477H27.478H27.7254L27.8755 25.2103C29.4515 23.145 30.4187 20.6803 30.6681 18.0944C30.9175 15.5085 30.4392 12.9043 29.287 10.5759C28.1348 8.24742 26.3548 6.28739 24.1477 4.917C21.9406 3.54661 19.3944 2.82044 16.7965 2.82044C14.1986 2.82044 11.6524 3.54661 9.44533 4.917C7.23825 6.28739 5.45817 8.24742 4.30601 10.5759C3.15384 12.9043 2.67547 15.5085 2.92488 18.0944C3.17429 20.6803 4.14156 23.145 5.71751 25.2103L6.1005 25.7122L6.50132 25.2244C7.60583 23.8802 9.54538 22.9381 11.5788 22.334C13.5986 21.7341 15.6207 21.494 16.796 21.494C17.9713 21.494 19.9937 21.7341 22.0136 22.3341C24.0472 22.9381 25.9866 23.8802 27.0906 25.2244Z" fill="#F0F0F0" stroke="#F0F0F0"/>
<path d="M16.794 15.618C16.1974 15.6172 15.6143 15.4396 15.1185 15.1077C14.6226 14.7757 14.2362 14.3042 14.0081 13.7527C13.7801 13.2012 13.7206 12.5944 13.8372 12.0091C13.9538 11.4239 14.2413 10.8863 14.6633 10.4643C15.0853 10.0423 15.6229 9.7548 16.2082 9.63819C16.7934 9.52159 17.4002 9.58107 17.9517 9.80913C18.5032 10.0372 18.9747 10.4236 19.3067 10.9195C19.6386 11.4153 19.8162 11.9983 19.817 12.595M16.794 15.618C17.1912 15.6189 17.5847 15.5414 17.9519 15.3898C18.3191 15.2382 18.6527 15.0156 18.9337 14.7346C19.2146 14.4537 19.4372 14.1201 19.5888 13.7529C19.7404 13.3857 19.8179 12.9922 19.817 12.595M16.794 15.618C16.7939 15.618 16.7939 15.618 16.7938 15.618L16.795 15.118L16.7944 15.618C16.7943 15.618 16.7941 15.618 16.794 15.618ZM19.817 12.595C19.817 12.5951 19.817 12.5953 19.817 12.5954L19.317 12.596L19.817 12.595ZM22.173 12.5947V12.596C22.173 13.6597 21.8576 14.6995 21.2667 15.5839C20.6757 16.4683 19.8358 17.1576 18.8531 17.5646C17.8704 17.9717 16.789 18.0782 15.7458 17.8707C14.7026 17.6632 13.7443 17.151 12.9922 16.3988C12.2401 15.6467 11.7279 14.6884 11.5203 13.6452C11.3128 12.602 11.4193 11.5206 11.8264 10.5379C12.2334 9.55523 12.9227 8.7153 13.8072 8.12436C14.6916 7.53342 15.7313 7.21801 16.795 7.21801V6.71801L16.7963 7.218C17.5029 7.21619 18.2029 7.35403 18.856 7.6236C19.5092 7.89316 20.1026 8.28914 20.6022 8.78877C21.1019 9.28841 21.4979 9.88185 21.7674 10.535C22.037 11.1882 22.1748 11.8881 22.173 12.5947Z" fill="#F0F0F0" stroke="#F0F0F0"/>
</svg>
