<svg id="outline-account_circle-24px" xmlns="http://www.w3.org/2000/svg" width="40.307" height="40.307" viewBox="0 0 40.307 40.307">
  <g id="Bounding_Boxes">
    <path id="Path_2264" data-name="Path 2264" d="M0,0H40.307V40.307H0Z" fill="none"/>
  </g>
  <g id="Outline" transform="translate(3.359 3.359)">
    <g id="Group_29" data-name="Group 29">
      <path id="Path_2265" data-name="Path 2265" d="M18.795,2A16.795,16.795,0,1,0,35.589,18.795,16.8,16.8,0,0,0,18.795,2Zm-8.28,27.342c.722-1.512,5.122-2.989,8.28-2.989s7.574,1.478,8.28,2.989a13.31,13.31,0,0,1-16.559,0Zm18.961-2.435c-2.4-2.922-8.229-3.913-10.681-3.913s-8.28.991-10.681,3.913a13.436,13.436,0,1,1,21.363,0Z" transform="translate(-2 -2)" fill="#999"/>
      <path id="Path_2266" data-name="Path 2266" d="M14.378,6a5.878,5.878,0,1,0,5.878,5.878A5.863,5.863,0,0,0,14.378,6Zm0,8.4A2.519,2.519,0,1,1,16.9,11.878,2.516,2.516,0,0,1,14.378,14.4Z" transform="translate(2.416 0.718)" fill="#999"/>
    </g>
  </g>
</svg>
