<svg id="outline-https-24px" xmlns="http://www.w3.org/2000/svg" width="40.307" height="40.307" viewBox="0 0 40.307 40.307">
  <g id="Bounding_Boxes">
    <path id="Path_2361" data-name="Path 2361" d="M0,0H40.307V40.307H0Z" fill="none"/>
  </g>
  <g id="Outline" transform="translate(6.718 1.679)">
    <path id="Path_2362" data-name="Path 2362" d="M27.512,12.756H25.833V9.4a8.4,8.4,0,1,0-16.795,0v3.359H7.359A3.369,3.369,0,0,0,4,16.115V32.91a3.369,3.369,0,0,0,3.359,3.359H27.512a3.369,3.369,0,0,0,3.359-3.359V16.115A3.369,3.369,0,0,0,27.512,12.756ZM12.4,9.4a5.038,5.038,0,0,1,10.077,0v3.359H12.4ZM27.512,32.91H7.359V16.115H27.512ZM17.436,27.871a3.359,3.359,0,1,0-3.359-3.359A3.369,3.369,0,0,0,17.436,27.871Z" transform="translate(-4 -1)" fill="#999"/>
  </g>
</svg>
