<svg width="28" height="36" viewBox="0 0 28 36" fill="none" xmlns="http://www.w3.org/2000/svg">
<path d="M24.23 12.435H22.551V9.079C22.5783 7.95898 22.3813 6.84481 21.9716 5.80207C21.5619 4.75933 20.9477 3.80909 20.1652 3.00728C19.3827 2.20546 18.4478 1.56828 17.4153 1.13324C16.3829 0.698194 15.2739 0.474075 14.1535 0.474075C13.0332 0.474075 11.9241 0.698194 10.8917 1.13324C9.85925 1.56828 8.92428 2.20546 8.14179 3.00728C7.35931 3.80909 6.74512 4.75933 6.33539 5.80207C5.92567 6.84481 5.72867 7.95898 5.756 9.079V12.438H4.077C3.18747 12.4406 2.33508 12.795 1.7058 13.4237C1.07652 14.0524 0.721431 14.9045 0.718002 15.794V32.589C0.72064 33.4791 1.07538 34.3319 1.70474 34.9613C2.33411 35.5906 3.18695 35.9454 4.077 35.948H24.23C25.1201 35.9454 25.9729 35.5906 26.6023 34.9613C27.2316 34.3319 27.5864 33.4791 27.589 32.589V15.794C27.5864 14.9039 27.2316 14.0511 26.6023 13.4217C25.9729 12.7924 25.1201 12.4376 24.23 12.435V12.435ZM9.118 9.079C9.118 7.74271 9.64884 6.46114 10.5937 5.51624C11.5386 4.57134 12.8202 4.0405 14.1565 4.0405C15.4928 4.0405 16.7744 4.57134 17.7193 5.51624C18.6642 6.46114 19.195 7.74271 19.195 9.079V12.438H9.118V9.079ZM24.23 32.589H4.077V15.794H24.23V32.589ZM14.154 27.55C14.8184 27.55 15.4678 27.353 16.0202 26.9839C16.5725 26.6148 17.0031 26.0902 17.2573 25.4764C17.5115 24.8627 17.5781 24.1873 17.4485 23.5357C17.3189 22.8841 16.9989 22.2856 16.5292 21.8158C16.0594 21.3461 15.4609 21.0261 14.8093 20.8965C14.1577 20.7669 13.4823 20.8335 12.8686 21.0877C12.2548 21.3419 11.7302 21.7725 11.3611 22.3248C10.992 22.8772 10.795 23.5267 10.795 24.191C10.7976 25.081 11.1524 25.9339 11.7817 26.5633C12.4111 27.1926 13.264 27.5474 14.154 27.55V27.55Z" fill="#F0F0F0"/>
</svg>
